<?xml version="1.0" standalone="no"?>
<!DOCTYPE svg PUBLIC "-//W3C//DTD SVG 20010904//EN"
 "http://www.w3.org/TR/2001/REC-SVG-20010904/DTD/svg10.dtd">
<svg version="1.0" xmlns="http://www.w3.org/2000/svg"
 width="1024.000000pt" height="1024.000000pt" viewBox="0 0 1024.000000 1024.000000"
 preserveAspectRatio="xMidYMid meet">

<g transform="translate(0.000000,1024.000000) scale(0.100000,-0.100000)"
fill="#000000" stroke="none">
<path d="M4925 8734 c-16 -2 -70 -9 -120 -15 -135 -16 -304 -55 -455 -106
-744 -248 -1331 -873 -1519 -1619 -56 -221 -65 -297 -65 -564 -1 -269 11 -378
64 -590 78 -313 239 -647 422 -878 27 -34 54 -60 59 -57 5 4 6 0 3 -8 -7 -19
234 -270 253 -263 8 3 12 2 8 -3 -10 -18 186 -169 346 -267 271 -165 621 -287
942 -329 137 -17 469 -20 597 -5 244 30 481 98 724 210 53 24 66 34 55 42 -11
7 -9 8 6 4 38 -11 374 202 359 226 -4 7 -2 8 5 4 25 -16 351 290 336 314 -5 8
-4 11 2 7 10 -7 49 31 101 99 32 42 40 60 23 49 -5 -3 -12 -1 -16 4 -3 6 4 8
15 6 17 -3 32 13 81 87 33 50 58 97 55 105 -3 7 -1 12 5 10 16 -3 102 162 160
307 90 228 145 481 156 716 5 120 4 126 -19 160 -59 88 -172 93 -241 11 -20
-25 -26 -45 -32 -108 -34 -427 -133 -735 -332 -1032 -34 -51 -60 -98 -56 -104
3 -5 1 -7 -5 -4 -5 4 -33 -21 -60 -55 -65 -82 -238 -252 -327 -323 -248 -197
-519 -326 -830 -394 -293 -64 -643 -60 -940 9 -459 108 -898 394 -1184 773
-24 31 -47 55 -51 52 -5 -3 -12 0 -16 6 -4 8 -3 9 4 5 19 -12 15 -2 -37 82
-147 236 -248 508 -297 797 -25 145 -25 482 -1 629 110 655 518 1208 1102
1491 298 145 563 205 900 206 350 0 643 -68 946 -222 128 -65 299 -176 369
-238 l45 -40 -82 -78 c-74 -70 -83 -82 -83 -115 0 -61 37 -94 118 -107 245
-40 536 -81 569 -81 53 0 85 19 105 61 17 34 17 41 -33 345 -27 170 -54 321
-60 335 -12 31 -57 59 -96 59 -22 0 -45 -18 -116 -91 l-87 -90 -73 58 c-334
269 -706 432 -1137 498 -99 16 -494 29 -565 19z m2431 -2327 c1 -9 -2 -15 -7
-11 -5 3 -7 9 -4 14 3 4 0 11 -5 13 -6 3 -5 4 1 3 7 -1 13 -10 15 -19z m-89
-59 c-3 -8 -6 -5 -6 6 -1 11 2 17 5 13 3 -3 4 -12 1 -19z m-10 -65 c-3 -10 -5
-2 -5 17 0 19 2 27 5 18 2 -10 2 -26 0 -35z m-4190 0 c-3 -10 -5 -4 -5 12 0
17 2 24 5 18 2 -7 2 -21 0 -30z m4440 -130 c-3 -10 -5 -2 -5 17 0 19 2 27 5
18 2 -10 2 -26 0 -35z m-20 -175 c-3 -7 -5 -2 -5 12 0 14 2 19 5 13 2 -7 2
-19 0 -25z m-16 -61 c-10 -9 -11 -8 -5 6 3 10 9 15 12 12 3 -3 0 -11 -7 -18z
m-291 -182 c0 -5 -5 -3 -10 5 -5 8 -10 20 -10 25 0 6 5 3 10 -5 5 -8 10 -19
10 -25z m224 -81 c3 -8 2 -12 -4 -9 -6 3 -10 10 -10 16 0 14 7 11 14 -7z
m-360 -222 c3 -5 -1 -9 -9 -9 -8 0 -12 4 -9 9 3 4 7 8 9 8 2 0 6 -4 9 -8z
m261 -32 c3 -6 -1 -7 -9 -4 -18 7 -21 14 -7 14 6 0 13 -4 16 -10z m-482 -307
c-5 -12 -3 -14 7 -8 9 6 11 4 5 -4 -5 -9 -11 -9 -17 -3 -6 6 -7 15 -4 21 11
17 16 13 9 -6z m-39 -75 c-2 -3 -13 -6 -24 -5 -24 2 -18 13 9 13 11 0 18 -4
15 -8z m-54 -22 c0 -2 -8 -10 -17 -17 -16 -13 -17 -12 -4 4 13 16 21 21 21 13z
m31 -23 c12 -16 12 -17 -2 -6 -9 7 -20 9 -24 5 -5 -4 -5 -1 -1 6 9 16 11 15
27 -5z m242 -68 c-3 -9 -8 -14 -10 -11 -3 3 -2 9 2 15 9 16 15 13 8 -4z m-338
-13 c-3 -3 -11 0 -18 7 -9 10 -8 11 6 5 10 -3 15 -9 12 -12z m-3220 -104 c5 4
5 1 1 -6 -6 -10 -11 -10 -22 -1 -8 6 -14 14 -14 16 0 3 6 0 13 -6 8 -6 18 -7
22 -3z m26 -45 c13 -16 12 -17 -3 -4 -17 13 -22 21 -14 21 2 0 10 -8 17 -17z
m50 -50 c13 -16 12 -17 -3 -4 -17 13 -22 21 -14 21 2 0 10 -8 17 -17z m534
-63 c3 -5 1 -10 -4 -10 -6 0 -11 5 -11 10 0 6 2 10 4 10 3 0 8 -4 11 -10z
m2616 -7 c13 -16 12 -17 -3 -4 -10 7 -18 15 -18 17 0 8 8 3 21 -13z m54 8 c3
-5 2 -12 -3 -15 -5 -3 -9 1 -9 9 0 17 3 19 12 6z m-185 -166 c0 -2 -10 -9 -22
-15 -22 -11 -22 -10 -4 4 21 17 26 19 26 11z m-1773 -121 c-3 -3 -12 -4 -19
-1 -8 3 -5 6 6 6 11 1 17 -2 13 -5z m-212 -24 c3 -6 -1 -7 -9 -4 -18 7 -21 14
-7 14 6 0 13 -4 16 -10z m-35 -190 c0 -5 -2 -10 -4 -10 -3 0 -8 5 -11 10 -3 6
-1 10 4 10 6 0 11 -4 11 -10z m353 -77 c-7 -2 -19 -2 -25 0 -7 3 -2 5 12 5 14
0 19 -2 13 -5z m564 -9 c-3 -3 -12 -4 -19 -1 -8 3 -5 6 6 6 11 1 17 -2 13 -5z
m-340 -10 c-3 -3 -12 -4 -19 -1 -8 3 -5 6 6 6 11 1 17 -2 13 -5z m70 0 c-3 -3
-12 -4 -19 -1 -8 3 -5 6 6 6 11 1 17 -2 13 -5z m61 -1 c-10 -2 -26 -2 -35 0
-10 3 -2 5 17 5 19 0 27 -2 18 -5z m65 0 c-7 -2 -21 -2 -30 0 -10 3 -4 5 12 5
17 0 24 -2 18 -5z"/>
<path d="M5403 7835 c-67 -29 -63 58 -63 -1325 l0 -1250 -100 0 -100 0 0 961
0 961 -29 29 -29 29 -222 0 c-224 0 -250 -4 -277 -39 -10 -12 -12 -238 -13
-978 l0 -963 -100 0 -100 0 0 654 0 655 -24 28 -24 28 -221 3 c-242 3 -276 -3
-300 -54 -15 -34 -16 -1272 0 -1328 19 -70 183 -224 361 -340 307 -200 635
-296 1012 -296 243 0 489 54 694 153 l67 32 0 115 0 114 -65 45 c-93 65 -234
204 -284 280 -61 93 -81 152 -81 236 1 107 44 173 160 242 117 70 113 52 31
135 -127 127 -190 294 -190 503 0 161 34 283 115 423 42 71 178 207 247 247
l52 30 0 305 c0 339 0 338 -66 366 -47 20 -405 19 -451 -1z m504 -147 c-3 -8
-6 -5 -6 6 -1 11 2 17 5 13 3 -3 4 -12 1 -19z m-1559 -1123 c-3 -3 -9 2 -12
12 -6 14 -5 15 5 6 7 -7 10 -15 7 -18z m1367 -645 c10 -11 16 -20 13 -20 -3 0
-13 9 -23 20 -10 11 -16 20 -13 20 3 0 13 -9 23 -20z m5 -764 c-10 -13 -40
-12 -40 1 0 3 7 3 15 0 8 -4 17 -2 20 3 4 6 9 10 12 10 3 0 0 -6 -7 -14z m46
-33 c-10 -11 -19 -7 -22 10 -2 15 0 16 12 6 8 -6 12 -14 10 -16z m-1735 -100
c13 -16 12 -17 -3 -4 -10 7 -18 15 -18 17 0 8 8 3 21 -13z m204 -122 c-9 -8
-36 -10 -30 -2 2 4 11 8 20 8 8 0 13 -3 10 -6z"/>
<path d="M6270 7182 c-21 -17 -22 -26 -21 -119 l2 -101 -68 -22 c-177 -57
-299 -170 -352 -328 -26 -76 -29 -232 -6 -309 17 -58 75 -149 93 -146 6 2 9
-3 6 -10 -5 -15 47 -60 117 -100 55 -32 127 -58 274 -98 162 -44 238 -75 288
-119 56 -50 71 -84 65 -159 -5 -77 -40 -123 -117 -160 -50 -23 -68 -26 -171
-26 -100 0 -121 3 -162 23 -43 22 -109 82 -172 157 l-25 30 -126 -64 c-95 -48
-127 -69 -131 -87 -7 -26 3 -47 17 -39 5 3 6 -1 3 -9 -9 -23 147 -173 226
-219 36 -20 102 -49 148 -64 l82 -27 0 -93 c0 -131 3 -133 160 -133 157 0 160
2 160 134 l0 94 68 22 c325 105 480 428 341 717 -12 27 -52 78 -88 114 -81 81
-158 120 -366 184 -196 60 -232 73 -280 103 -61 37 -79 67 -83 139 -4 54 -1
69 22 108 35 59 102 94 195 102 128 11 227 -37 301 -147 22 -33 46 -60 52 -60
12 0 224 77 251 92 14 7 17 16 12 35 -8 35 -35 74 -46 67 -5 -3 -6 1 -3 9 7
18 -72 125 -122 164 -47 37 -143 86 -201 104 l-43 12 0 91 c0 50 -3 101 -6
112 -9 34 -47 44 -163 44 -90 0 -113 -3 -131 -18z m585 -403 c11 -16 1 -19
-13 -3 -7 8 -8 14 -3 14 5 0 13 -5 16 -11z m142 -1141 c-3 -8 -6 -5 -6 6 -1
11 2 17 5 13 3 -3 4 -12 1 -19z m-43 -148 c-6 -6 -10 -3 -10 10 0 13 4 16 10
10 7 -7 7 -13 0 -20z m-1074 -66 c0 -8 -19 -13 -24 -6 -3 5 1 9 9 9 8 0 15 -2
15 -3z m881 -71 c13 -16 12 -17 -3 -4 -10 7 -18 15 -18 17 0 8 8 3 21 -13z
m44 -23 c3 -6 -1 -7 -9 -4 -18 7 -21 14 -7 14 6 0 13 -4 16 -10z m-70 -60 c-3
-5 -12 -10 -18 -10 -7 0 -6 4 3 10 19 12 23 12 15 0z m-461 -276 c3 -8 2 -12
-4 -9 -6 3 -10 10 -10 16 0 14 7 11 14 -7z m266 12 c0 -2 -6 -9 -14 -15 -11
-9 -16 -9 -22 0 -4 7 -3 9 4 5 6 -3 13 -2 17 4 6 10 15 14 15 6z"/>
<path d="M1472 3608 c-17 -17 -17 -1389 0 -1406 17 -17 849 -17 866 0 8 8 12
49 12 118 0 69 -4 110 -12 118 -9 9 -88 12 -295 12 l-283 0 0 155 0 155 249 0
c200 0 251 3 260 14 8 9 11 52 9 127 l-3 114 -257 3 -258 2 0 160 0 160 283 0
c207 0 286 3 295 12 19 19 16 232 -4 252 -13 14 -67 16 -433 16 -311 0 -420
-3 -429 -12z"/>
<path d="M5090 3246 c-327 -70 -488 -492 -318 -829 78 -155 218 -240 417 -253
146 -10 282 31 391 117 83 65 83 71 3 145 -37 35 -76 66 -86 70 -11 3 -30 -5
-53 -25 -70 -62 -110 -76 -215 -76 -89 0 -99 2 -144 30 -56 35 -91 93 -101
168 l-7 47 346 0 c305 0 346 2 351 16 13 34 5 174 -14 248 -48 189 -162 304
-339 342 -79 16 -156 17 -231 0z m205 -215 c69 -31 115 -104 115 -183 l0 -28
-215 0 -214 0 6 33 c29 154 175 239 308 178z"/>
<path d="M4030 3241 c-49 -15 -105 -50 -139 -85 -19 -20 -37 -36 -41 -36 -3 0
-6 18 -6 40 -2 65 -12 70 -134 70 -79 0 -111 -4 -119 -14 -8 -9 -10 -204 -9
-712 l3 -699 125 -3 c109 -2 126 0 137 15 10 12 13 76 13 241 l0 224 46 -41
c103 -91 299 -104 444 -31 77 39 160 130 193 212 35 88 51 210 44 332 -16 254
-115 415 -294 477 -58 20 -211 26 -263 10z m126 -226 c79 -23 131 -88 153
-193 24 -115 7 -251 -42 -335 -74 -125 -294 -124 -382 2 l-30 43 0 161 c0 161
0 162 29 215 58 104 155 142 272 107z"/>
<path d="M6266 3233 c-32 -11 -72 -38 -113 -76 l-63 -59 0 49 c0 80 -7 84
-135 81 -105 -3 -110 -4 -122 -28 -10 -19 -13 -137 -13 -495 0 -410 2 -473 16
-493 14 -21 22 -22 134 -22 108 0 120 2 130 19 6 13 10 139 10 343 0 316 1
325 23 368 32 64 81 90 173 90 89 0 128 -23 164 -95 24 -49 24 -52 27 -375 2
-179 5 -331 8 -337 3 -9 37 -13 119 -13 92 0 118 3 131 16 14 15 16 56 13 393
l-3 376 -31 66 c-41 86 -92 142 -162 176 -49 24 -71 28 -157 30 -74 2 -113 -2
-149 -14z"/>
<path d="M8198 3234 c-229 -55 -368 -251 -368 -519 0 -270 137 -470 363 -531
109 -29 300 -14 390 32 107 55 197 162 238 284 27 83 36 247 19 348 -25 148
-119 281 -244 344 -109 55 -274 73 -398 42z m254 -235 c86 -44 134 -163 126
-316 -9 -182 -90 -276 -238 -277 -100 -1 -161 38 -211 134 -22 40 -24 58 -24
170 0 109 3 131 23 175 36 77 81 116 157 136 43 11 122 1 167 -22z"/>
<path d="M2463 3214 c-8 -21 -11 -15 174 -276 l154 -217 -176 -247 c-97 -136
-175 -254 -173 -263 3 -14 24 -16 145 -19 l142 -3 108 166 c59 91 110 165 113
164 3 0 38 -53 79 -117 41 -64 90 -138 109 -164 l34 -48 133 0 c119 0 135 2
144 18 8 15 -21 63 -160 262 -93 134 -169 247 -169 251 0 5 75 112 166 239 97
135 164 237 162 248 -3 15 -19 17 -137 20 -87 2 -138 -1 -147 -8 -7 -7 -54
-76 -105 -156 -50 -79 -95 -144 -99 -144 -4 0 -44 58 -89 129 -127 201 -98
181 -262 181 -120 0 -141 -2 -146 -16z"/>
<path d="M6932 3218 c-8 -8 -12 -46 -12 -103 0 -57 4 -95 12 -103 9 -9 74 -12
230 -12 120 0 218 -3 218 -7 0 -4 -8 -16 -19 -27 -52 -58 -433 -560 -441 -582
-15 -39 -13 -169 4 -183 9 -8 126 -10 412 -9 l399 3 0 110 0 110 -237 5 -238
5 133 172 c72 94 178 231 234 305 l103 133 0 85 c0 54 -5 91 -12 98 -17 17
-769 17 -786 0z"/>
</g>
</svg>
